<svg xmlns="http://www.w3.org/2000/svg" width="1.25em" height="1.25em" viewBox="0 0 16 16" fill="#0582db" title=""><path fill-rule="evenodd" clip-rule="evenodd" d="M9.93783 6.96471C10.8486 6.3926 11.4599 5.39721 11.4599 4.26332C11.4599 2.45997 9.91379 1.00313 7.99999 1.00313C6.08618 1.00313 4.54012 2.45997 4.54012 4.26332C4.54012 5.38549 5.14108 6.36387 6.06888 6.96894C6.62244 7.31495 7.2945 7.52351 7.99999 7.52351C8.70833 7.52351 9.383 7.31326 9.93783 6.96471ZM5.47162 7.79937C6.19021 8.25078 7.06848 8.52665 7.99999 8.52665C8.93149 8.52665 9.80976 8.25078 10.5284 7.79937C11.726 7.04702 12.5244 5.74295 12.5244 4.26332C12.5244 1.90596 10.5017 0 7.99999 0C5.49824 0 3.47554 1.90596 3.47554 4.26332C3.47554 5.74295 4.27398 7.02194 5.47162 7.79937Z"></path><path fill-rule="evenodd" clip-rule="evenodd" d="M14.3073 14.9969C14.2779 12.6572 12.3485 10.8464 10.1291 10.8464H5.89745C3.64835 10.8464 1.72204 12.6605 1.69272 14.9969H14.3073ZM15.3722 15.4646V15.0509C15.3722 12.1794 13.0035 9.84331 10.1291 9.84331H5.89745C2.99649 9.84331 0.627808 12.1794 0.627808 15.0509V15.4646C0.627808 15.7567 0.867337 16 1.16009 16H14.8399C15.1326 16 15.3722 15.7567 15.3722 15.4646Z"></path></svg>