<svg xmlns="http://www.w3.org/2000/svg" width="1.25em" height="1.25em" viewBox="0 0 16 16" fill="#0582db" title=""><g clip-path="url(#clip0)"><path d="M11.5787 0.192436C11.8353 -0.0641453 12.2513 -0.0641455 12.5079 0.192436C12.7645 0.449018 12.7645 0.865019 12.5079 1.1216L2.28706 11.3424C2.03048 11.599 1.61448 11.599 1.35789 11.3424C1.10131 11.0858 1.10131 10.6698 1.35789 10.4133L11.5787 0.192436Z"></path><path d="M1.18785 10.7691C1.28176 10.4186 1.64203 10.2106 1.99253 10.3045C2.34302 10.3985 2.55102 10.7587 2.45711 11.1092L1.29181 15.4582C1.1979 15.8087 0.83763 16.0167 0.487133 15.9227C0.136636 15.8288 -0.071365 15.4686 0.0225504 15.1181L1.18785 10.7691Z"></path><path d="M5.22974 14.811C5.58024 14.7171 5.78824 14.3568 5.69432 14.0063C5.6004 13.6558 5.24014 13.4478 4.88964 13.5417L0.536363 14.7082C0.185865 14.8021 -0.0221344 15.1624 0.071781 15.5129C0.165696 15.8634 0.525964 16.0714 0.876461 15.9775L5.22974 14.811Z"></path><path d="M14.8308 3.4445C15.0874 3.18792 15.5034 3.18792 15.7599 3.4445C16.0165 3.70108 16.0165 4.11708 15.7599 4.37366L5.53913 14.5945C5.28255 14.8511 4.86654 14.8511 4.60996 14.5945C4.35338 14.3379 4.35338 13.9219 4.60996 13.6653L14.8308 3.4445Z"></path><path d="M13.9016 5.30284C14.1582 5.55942 14.1582 5.97542 13.9016 6.232C13.6451 6.48858 13.2291 6.48858 12.9725 6.232L9.72041 2.97992C9.46382 2.72334 9.46382 2.30734 9.72041 2.05076C9.97699 1.79418 10.393 1.79418 10.6496 2.05076L13.9016 5.30284Z"></path><path d="M15.7599 3.4445C16.0165 3.70108 16.0165 4.11708 15.7599 4.37366C15.5034 4.63025 15.0874 4.63025 14.8308 4.37367L11.5787 1.12159C11.3222 0.865007 11.3221 0.449018 11.5787 0.192436C11.8353 -0.0641453 12.2513 -0.0641455 12.5079 0.192436L15.7599 3.4445Z"></path></g><defs><clipPath id="clip0"><rect width="16" height="16"></rect></clipPath></defs></svg>